<svg width="517" height="90" viewBox="0 0 517 90" fill="none" xmlns="http://www.w3.org/2000/svg">
<path d="M38.9062 14.3555V82.9531C36.8698 84.724 34.1471 86.207 30.7383 87.4023C27.3294 88.5977 23.1901 89.1953 18.3203 89.1953C13.4505 89.1953 9.3112 88.1107 5.90234 85.9414C2.05078 83.5951 0.125 80.2747 0.125 75.9805V7.38281C2.16146 5.61198 4.88411 4.12891 8.29297 2.93359C11.7018 1.73828 15.819 1.14062 20.6445 1.14062C25.4701 1.14062 29.6536 2.20312 33.1953 4.32812C37.0026 6.76302 38.9062 10.1055 38.9062 14.3555ZM80.9414 40.7852C81.1185 40.918 81.6276 40.9844 82.4688 40.9844C83.3099 40.9844 83.9518 40.6523 84.3945 39.9883C84.8372 39.3242 85.0586 38.2396 85.0586 36.7344V34.3438C85.0586 32.75 84.8594 31.6211 84.4609 30.957C84.1068 30.2487 83.487 29.8945 82.6016 29.8945C81.7604 29.8945 81.1849 29.9831 80.875 30.1602C80.9193 30.3815 80.9414 30.7578 80.9414 31.2891V40.7852ZM115.207 55.9258L126.695 67.6797C125.898 74.5859 123.707 79.8984 120.121 83.6172C116.579 87.3359 111.665 89.1953 105.379 89.1953C100.642 89.1953 96.5247 88.0664 93.0273 85.8086C88.556 82.9753 85.2135 78.4596 83 72.2617L80.6094 65.7539C78.75 65.7096 76.4036 65.4661 73.5703 65.0234C73.2161 65.3776 73.0391 65.8646 73.0391 66.4844C73.0391 67.6797 74.832 68.388 78.418 68.6094L82.2031 78.1719V83.8164C77.112 87.4023 70.582 89.1953 62.6133 89.1953C56.9023 89.1953 52.3424 88.0221 48.9336 85.6758C45.5247 83.3294 43.8203 79.9206 43.8203 75.4492V12.3633C43.8203 10.4154 45.6133 8.53385 49.1992 6.71875C52.7852 4.85938 57.4779 3.3763 63.2773 2.26953C69.0768 1.11849 74.8763 0.542969 80.6758 0.542969C93.957 0.542969 104.339 3.26562 111.82 8.71094C119.701 14.4219 123.641 22.457 123.641 32.8164C123.641 38.7487 121.958 43.8398 118.594 48.0898C115.273 52.2956 111.068 55.2174 105.977 56.8555C105.977 58.2721 106.818 58.9805 108.5 58.9805C110.227 58.9805 112.462 57.9622 115.207 55.9258ZM185.797 1.14062C191.109 1.14062 195.714 2.57943 199.609 5.45703C203.505 8.33464 205.453 12.4297 205.453 17.7422V54.6641C205.453 65.9089 202.022 74.5859 195.16 80.6953C188.298 86.7604 178.802 89.793 166.672 89.793C154.586 89.793 145.178 86.8047 138.449 80.8281C131.587 74.8516 128.156 66.1302 128.156 54.6641V7.31641C133.38 3.15495 139.423 1.07422 146.285 1.07422C152.04 1.07422 156.6 2.60156 159.965 5.65625C163.329 8.66667 165.012 13.2487 165.012 19.4023V58.1172C165.499 58.4714 166.052 58.6484 166.672 58.6484C167.336 58.6484 167.801 58.4935 168.066 58.1836C168.376 57.8294 168.531 57.1875 168.531 56.2578V19.3359C168.531 16.5469 168.398 14.3333 168.133 12.6953C167.867 11.0573 167.336 9.41927 166.539 7.78125C171.852 3.35417 178.271 1.14062 185.797 1.14062Z" fill="#FFA500"/>
<path d="M211.703 38.7812C211.703 37.0312 212.297 35.5625 213.484 34.375C214.734 33.125 216.234 32.5 217.984 32.5H272.547C274.297 32.5 275.797 33.0938 277.047 34.2812C278.234 35.5312 278.828 37.0312 278.828 38.7812C278.828 40.5312 278.203 42.0312 276.953 43.2812C275.766 44.4688 274.297 45.0625 272.547 45.0625H251.641V83.0312C251.266 86.7812 249.203 88.8125 245.453 89.125C243.703 89.125 242.172 88.5625 240.859 87.4375C239.609 86.25 238.984 84.7812 238.984 83.0312V45.0625H217.984C216.234 45.0625 214.766 44.4375 213.578 43.1875C212.328 42 211.703 40.5312 211.703 38.7812ZM339.016 32.5C342.203 32.5625 345.047 33.5625 347.547 35.5C350.047 37.4375 352.047 39.75 353.547 42.4375C355.109 45.125 356.266 47.9688 357.016 50.9688C357.766 53.9688 358.141 57.0312 358.141 60.1562C358.141 64.2812 357.484 68.3438 356.172 72.3438C354.922 76.2812 352.828 79.7812 349.891 82.8438C347.016 85.9062 343.391 87.5625 339.016 87.8125H306.297C301.922 87.625 298.266 86 295.328 82.9375C292.391 79.875 290.297 76.3438 289.047 72.3438C287.859 68.3438 287.266 64.2812 287.266 60.1562C287.266 56.0312 287.891 52 289.141 48.0625C290.391 44.0625 292.453 40.5312 295.328 37.4688C298.266 34.3438 301.922 32.6875 306.297 32.5H308.078H337.234H339.016ZM335.828 75.25C338.203 75.125 340.172 74.25 341.734 72.625C343.359 70.9375 344.516 69 345.203 66.8125C345.891 64.625 346.234 62.4062 346.234 60.1562C346.234 57.9062 345.859 55.7188 345.109 53.5938C344.422 51.4062 343.297 49.4688 341.734 47.7812C340.172 46.0938 338.203 45.1875 335.828 45.0625H309.203C306.828 45.1875 304.859 46.0938 303.297 47.7812C301.734 49.4688 300.578 51.4062 299.828 53.5938C299.141 55.7188 298.797 57.9062 298.797 60.1562C298.797 62.4062 299.141 64.625 299.828 66.8125C300.516 69 301.641 70.9375 303.203 72.625C304.828 74.25 306.828 75.125 309.203 75.25H335.828ZM388.234 29.9688C390.422 29.9688 392.547 30.3438 394.609 31.0938C396.734 31.8438 398.766 32.9375 400.703 34.375C401.016 34.6875 401.359 35 401.734 35.3125C402.047 35 402.391 34.6875 402.766 34.375C404.703 32.9375 406.703 31.8438 408.766 31.0938C410.891 30.3438 413.016 29.9688 415.141 29.9688C417.328 29.9688 419.453 30.3438 421.516 31.0938C423.641 31.8438 425.641 32.9688 427.516 34.4688C429.453 35.9062 431.141 37.8438 432.578 40.2812C434.078 42.7188 434.828 45.625 434.828 49V82.8438C434.453 86.5938 432.391 88.625 428.641 88.9375C426.891 88.9375 425.359 88.375 424.047 87.25C422.797 86.0625 422.172 84.5938 422.172 82.8438V49.75C422.172 48.25 421.891 47 421.328 46C420.766 44.9375 420.141 44.125 419.453 43.5625C418.766 42.9375 418.047 42.5 417.297 42.25C416.547 41.9375 415.797 41.7812 415.047 41.7812C414.297 41.7812 413.547 41.9375 412.797 42.25C412.109 42.5 411.422 42.9375 410.734 43.5625C410.047 44.125 409.422 44.9375 408.859 46C408.297 47 407.984 48.25 407.922 49.75V82.8438C407.547 86.5938 405.484 88.625 401.734 88.9375C399.984 88.9375 398.453 88.375 397.141 87.25C395.891 86.0625 395.266 84.5938 395.266 82.8438V49.75C395.266 48.25 394.984 47 394.422 46C393.859 44.9375 393.234 44.125 392.547 43.5625C391.859 42.9375 391.141 42.5 390.391 42.25C389.641 41.9375 388.891 41.7812 388.141 41.7812C387.391 41.7812 386.641 41.9375 385.891 42.25C385.203 42.5 384.516 42.9375 383.828 43.5625C383.141 44.125 382.516 44.9375 381.953 46C381.391 47 381.078 48.25 381.016 49.75V82.8438C380.703 86.5938 378.672 88.625 374.922 88.9375C373.172 88.9375 371.641 88.375 370.328 87.25C369.078 86.0625 368.453 84.5938 368.453 82.8438V49C368.578 45.625 369.359 42.7188 370.797 40.2812C372.234 37.8438 373.922 35.9062 375.859 34.4688C377.797 32.9688 379.797 31.8438 381.859 31.0938C383.984 30.3438 386.109 29.9688 388.234 29.9688ZM496.984 32.5C500.172 32.5625 503.016 33.5625 505.516 35.5C508.016 37.4375 510.016 39.75 511.516 42.4375C513.078 45.125 514.234 47.9688 514.984 50.9688C515.734 53.9688 516.109 57.0312 516.109 60.1562C516.109 64.2812 515.453 68.3438 514.141 72.3438C512.891 76.2812 510.797 79.7812 507.859 82.8438C504.984 85.9062 501.359 87.5625 496.984 87.8125H464.266C459.891 87.625 456.234 86 453.297 82.9375C450.359 79.875 448.266 76.3438 447.016 72.3438C445.828 68.3438 445.234 64.2812 445.234 60.1562C445.234 56.0312 445.859 52 447.109 48.0625C448.359 44.0625 450.422 40.5312 453.297 37.4688C456.234 34.3438 459.891 32.6875 464.266 32.5H466.047H495.203H496.984ZM493.797 75.25C496.172 75.125 498.141 74.25 499.703 72.625C501.328 70.9375 502.484 69 503.172 66.8125C503.859 64.625 504.203 62.4062 504.203 60.1562C504.203 57.9062 503.828 55.7188 503.078 53.5938C502.391 51.4062 501.266 49.4688 499.703 47.7812C498.141 46.0938 496.172 45.1875 493.797 45.0625H467.172C464.797 45.1875 462.828 46.0938 461.266 47.7812C459.703 49.4688 458.547 51.4062 457.797 53.5938C457.109 55.7188 456.766 57.9062 456.766 60.1562C456.766 62.4062 457.109 64.625 457.797 66.8125C458.484 69 459.609 70.9375 461.172 72.625C462.797 74.25 464.797 75.125 467.172 75.25H493.797Z" fill="#002233"/>
</svg>
